<svg width="24" height="24" viewBox="0 0 33 33" fill="none" xmlns="http://www.w3.org/2000/svg">
<path d="M9.89108 6.02772C9.89108 5.32405 10.1706 4.64919 10.6682 4.15162C11.1658 3.65405 11.8406 3.37451 12.5443 3.37451H20.5039C21.2076 3.37451 21.8824 3.65405 22.38 4.15162C22.8776 4.64919 23.1571 5.32405 23.1571 6.02772V8.68093H28.4635C28.8154 8.68093 29.1528 8.8207 29.4016 9.06948C29.6504 9.31827 29.7901 9.65569 29.7901 10.0075C29.7901 10.3594 29.6504 10.6968 29.4016 10.9456C29.1528 11.1944 28.8154 11.3341 28.4635 11.3341H27.0454L25.8952 27.4418C25.8476 28.1111 25.5481 28.7376 25.057 29.195C24.5659 29.6523 23.9197 29.9066 23.2487 29.9066H9.79821C9.12714 29.9066 8.48099 29.6523 7.9899 29.195C7.49882 28.7376 7.19929 28.1111 7.15164 27.4418L6.00413 11.3341H4.58466C4.23282 11.3341 3.8954 11.1944 3.64661 10.9456C3.39782 10.6968 3.25806 10.3594 3.25806 10.0075C3.25806 9.65569 3.39782 9.31827 3.64661 9.06948C3.8954 8.8207 4.23282 8.68093 4.58466 8.68093H9.89108V6.02772ZM12.5443 8.68093H20.5039V6.02772H12.5443V8.68093ZM8.66264 11.3341L9.79954 27.2534H23.25L24.3869 11.3341H8.66264ZM13.8709 13.9873C14.2227 13.9873 14.5602 14.1271 14.8089 14.3759C15.0577 14.6247 15.1975 14.9621 15.1975 15.3139V23.2736C15.1975 23.6254 15.0577 23.9628 14.8089 24.2116C14.5602 24.4604 14.2227 24.6002 13.8709 24.6002C13.5191 24.6002 13.1816 24.4604 12.9328 24.2116C12.6841 23.9628 12.5443 23.6254 12.5443 23.2736V15.3139C12.5443 14.9621 12.6841 14.6247 12.9328 14.3759C13.1816 14.1271 13.5191 13.9873 13.8709 13.9873ZM19.1773 13.9873C19.5291 13.9873 19.8666 14.1271 20.1154 14.3759C20.3641 14.6247 20.5039 14.9621 20.5039 15.3139V23.2736C20.5039 23.6254 20.3641 23.9628 20.1154 24.2116C19.8666 24.4604 19.5291 24.6002 19.1773 24.6002C18.8255 24.6002 18.488 24.4604 18.2393 24.2116C17.9905 23.9628 17.8507 23.6254 17.8507 23.2736V15.3139C17.8507 14.9621 17.9905 14.6247 18.2393 14.3759C18.488 14.1271 18.8255 13.9873 19.1773 13.9873Z" fill="#333333"/>
</svg>
