<svg width="28" height="28" viewBox="0 0 43 43" fill="none" xmlns="http://www.w3.org/2000/svg">
<path d="M25.3739 6.99177C24.8842 6.50195 24.3029 6.11341 23.663 5.84831C23.0231 5.58322 22.3373 5.44678 21.6447 5.44678C20.9521 5.44678 20.2662 5.58322 19.6264 5.84831C18.9865 6.11341 18.4051 6.50195 17.9154 6.99177L7.00825 17.9011C6.51843 18.3908 6.12988 18.9721 5.86479 19.612C5.5997 20.2519 5.46326 20.9377 5.46326 21.6303C5.46326 22.3229 5.5997 23.0088 5.86479 23.6486C6.12988 24.2885 6.51843 24.8699 7.00825 25.3596L17.9154 36.2668C18.4051 36.7566 18.9865 37.1451 19.6264 37.4102C20.2662 37.6753 20.9521 37.8117 21.6447 37.8117C22.3373 37.8117 23.0231 37.6753 23.663 37.4102C24.3029 37.1451 24.8842 36.7566 25.3739 36.2668L36.2811 25.3596C36.7709 24.8699 37.1595 24.2885 37.4246 23.6486C37.6897 23.0088 37.8261 22.3229 37.8261 21.6303C37.8261 20.9377 37.6897 20.2519 37.4246 19.612C37.1595 18.9721 36.7709 18.3908 36.2811 17.9011L25.3739 6.99177ZM23.0073 13.5011C23.2051 13.3034 23.4733 13.1923 23.7529 13.1923C24.0326 13.1923 24.3008 13.3034 24.4986 13.5011L27.6625 16.665C27.8602 16.8628 27.9713 17.131 27.9713 17.4107C27.9713 17.6903 27.8602 17.9585 27.6625 18.1563L24.4986 21.3202C24.2997 21.5124 24.0333 21.6187 23.7567 21.6163C23.4802 21.6139 23.2157 21.5029 23.0201 21.3074C22.8246 21.1119 22.7137 20.8473 22.7113 20.5708C22.7089 20.2943 22.8152 20.0279 23.0073 19.829L24.372 18.4664H22.6993C21.8602 18.4664 21.0554 18.7997 20.4621 19.3931C19.8687 19.9864 19.5354 20.7912 19.5354 21.6303V26.9036C19.5354 27.1833 19.4243 27.4515 19.2265 27.6493C19.0287 27.8471 18.7604 27.9582 18.4807 27.9582C18.201 27.9582 17.9328 27.8471 17.735 27.6493C17.5372 27.4515 17.4261 27.1833 17.4261 26.9036V21.6303C17.4261 20.2318 17.9817 18.8905 18.9706 17.9016C19.9595 16.9126 21.3008 16.3571 22.6993 16.3571H24.372L23.0073 14.9923C22.8096 14.7946 22.6985 14.5264 22.6985 14.2467C22.6985 13.9671 22.8096 13.6988 23.0073 13.5011Z" fill="#333333"/>
</svg>
