<svg width="200" height="40" viewBox="0 0 246 53" fill="none" xmlns="http://www.w3.org/2000/svg">
<path d="M72.0263 14.4083V39H66.0361V24.252L60.5362 39H55.702L50.1671 24.217V39H44.1768V14.4083H51.253L58.1541 31.4333L64.9851 14.4083H72.0263ZM82.3243 22.7106C83.0249 21.6364 83.9007 20.7956 84.9516 20.1884C86.0025 19.5579 87.1702 19.2426 88.4547 19.2426V25.5832H86.8083C85.3136 25.5832 84.1926 25.9101 83.4453 26.564C82.698 27.1946 82.3243 28.3156 82.3243 29.927V39H76.334V19.4528H82.3243V22.7106Z" fill="black"/>
<path d="M105.117 34.0957H115.696V39H98.3211V34.446L108.83 19.3127H98.3211V14.4083H115.696V18.9623L105.117 34.0957ZM122.622 17.421C121.571 17.421 120.707 17.1174 120.03 16.5102C119.376 15.8796 119.049 15.109 119.049 14.1982C119.049 13.264 119.376 12.4933 120.03 11.8861C120.707 11.2556 121.571 10.9403 122.622 10.9403C123.65 10.9403 124.49 11.2556 125.144 11.8861C125.822 12.4933 126.16 13.264 126.16 14.1982C126.16 15.109 125.822 15.8796 125.144 16.5102C124.49 17.1174 123.65 17.421 122.622 17.421ZM125.6 19.4528V39H119.609V19.4528H125.6ZM135.931 22.2202C136.515 21.3094 137.321 20.5738 138.348 20.0133C139.376 19.4528 140.579 19.1725 141.956 19.1725C143.568 19.1725 145.027 19.5812 146.335 20.3986C147.643 21.216 148.671 22.3837 149.418 23.9017C150.189 25.4197 150.574 27.1829 150.574 29.1914C150.574 31.1998 150.189 32.9747 149.418 34.516C148.671 36.0341 147.643 37.2134 146.335 38.0542C145.027 38.8716 143.568 39.2802 141.956 39.2802C140.602 39.2802 139.399 39 138.348 38.4395C137.321 37.879 136.515 37.155 135.931 36.2676V48.3182H129.941V19.4528H135.931V22.2202ZM144.479 29.1914C144.479 27.6967 144.058 26.529 143.218 25.6883C142.4 24.8242 141.384 24.3921 140.17 24.3921C138.979 24.3921 137.963 24.8242 137.122 25.6883C136.305 26.5524 135.896 27.7317 135.896 29.2264C135.896 30.721 136.305 31.9004 137.122 32.7645C137.963 33.6286 138.979 34.0606 140.17 34.0606C141.361 34.0606 142.377 33.6286 143.218 32.7645C144.058 31.8771 144.479 30.686 144.479 29.1914ZM152.701 26.6691C152.701 24.2403 153.226 22.0801 154.277 20.1884C155.328 18.2734 156.788 16.7904 158.656 15.7395C160.548 14.6652 162.685 14.1281 165.067 14.1281C167.986 14.1281 170.485 14.8988 172.563 16.4401C174.642 17.9815 176.031 20.0833 176.732 22.7457H170.146C169.656 21.7181 168.955 20.9358 168.044 20.3986C167.157 19.8615 166.141 19.5929 164.997 19.5929C163.152 19.5929 161.657 20.2351 160.513 21.5196C159.368 22.8041 158.796 24.5206 158.796 26.6691C158.796 28.8177 159.368 30.5342 160.513 31.8187C161.657 33.1031 163.152 33.7454 164.997 33.7454C166.141 33.7454 167.157 33.4768 168.044 32.9397C168.955 32.4025 169.656 31.6202 170.146 30.5926H176.732C176.031 33.2549 174.642 35.3568 172.563 36.8981C170.485 38.4162 167.986 39.1752 165.067 39.1752C162.685 39.1752 160.548 38.6497 158.656 37.5988C156.788 36.5245 155.328 35.0415 154.277 33.1498C153.226 31.2582 152.701 29.0979 152.701 26.6691ZM189.298 39.2802C187.383 39.2802 185.655 38.8716 184.114 38.0542C182.596 37.2368 181.393 36.0691 180.505 34.5511C179.641 33.0331 179.209 31.2582 179.209 29.2264C179.209 27.218 179.653 25.4547 180.54 23.9367C181.428 22.3954 182.642 21.216 184.184 20.3986C185.725 19.5812 187.453 19.1725 189.368 19.1725C191.283 19.1725 193.011 19.5812 194.553 20.3986C196.094 21.216 197.309 22.3954 198.196 23.9367C199.083 25.4547 199.527 27.218 199.527 29.2264C199.527 31.2348 199.072 33.0097 198.161 34.5511C197.274 36.0691 196.047 37.2368 194.483 38.0542C192.941 38.8716 191.213 39.2802 189.298 39.2802ZM189.298 34.0957C190.443 34.0957 191.412 33.6753 192.206 32.8346C193.023 31.9938 193.432 30.7911 193.432 29.2264C193.432 27.6617 193.035 26.459 192.241 25.6182C191.47 24.7775 190.513 24.3571 189.368 24.3571C188.201 24.3571 187.231 24.7775 186.461 25.6182C185.69 26.4356 185.305 27.6383 185.305 29.2264C185.305 30.7911 185.678 31.9938 186.426 32.8346C187.196 33.6753 188.154 34.0957 189.298 34.0957ZM201.514 29.1914C201.514 27.1829 201.888 25.4197 202.635 23.9017C203.406 22.3837 204.445 21.216 205.753 20.3986C207.061 19.5812 208.52 19.1725 210.132 19.1725C211.416 19.1725 212.584 19.4411 213.635 19.9782C214.709 20.5154 215.55 21.2394 216.157 22.1502V13.0772H222.147V39H216.157V36.1975C215.596 37.1317 214.791 37.879 213.74 38.4395C212.712 39 211.51 39.2802 210.132 39.2802C208.52 39.2802 207.061 38.8716 205.753 38.0542C204.445 37.2134 203.406 36.0341 202.635 34.516C201.888 32.9747 201.514 31.1998 201.514 29.1914ZM216.157 29.2264C216.157 27.7317 215.737 26.5524 214.896 25.6883C214.078 24.8242 213.074 24.3921 211.883 24.3921C210.692 24.3921 209.676 24.8242 208.836 25.6883C208.018 26.529 207.609 27.6967 207.609 29.1914C207.609 30.686 208.018 31.8771 208.836 32.7645C209.676 33.6286 210.692 34.0606 211.883 34.0606C213.074 34.0606 214.078 33.6286 214.896 32.7645C215.737 31.9004 216.157 30.721 216.157 29.2264ZM244.907 28.9111C244.907 29.4716 244.872 30.0555 244.802 30.6627H231.245C231.339 31.8771 231.724 32.8112 232.401 33.4651C233.102 34.0957 233.954 34.411 234.958 34.411C236.453 34.411 237.492 33.7804 238.076 32.5193H244.452C244.125 33.8038 243.529 34.9598 242.665 35.9873C241.824 37.0149 240.762 37.8206 239.477 38.4045C238.193 38.9883 236.757 39.2802 235.169 39.2802C233.254 39.2802 231.549 38.8716 230.054 38.0542C228.559 37.2368 227.392 36.0691 226.551 34.5511C225.71 33.0331 225.29 31.2582 225.29 29.2264C225.29 27.1946 225.699 25.4197 226.516 23.9017C227.357 22.3837 228.524 21.216 230.019 20.3986C231.514 19.5812 233.23 19.1725 235.169 19.1725C237.06 19.1725 238.742 19.5695 240.213 20.3636C241.684 21.1576 242.829 22.2903 243.646 23.7616C244.487 25.2329 244.907 26.9494 244.907 28.9111ZM238.777 27.3347C238.777 26.3072 238.426 25.4898 237.726 24.8826C237.025 24.2754 236.149 23.9718 235.099 23.9718C234.094 23.9718 233.242 24.2637 232.541 24.8475C231.864 25.4314 231.444 26.2604 231.28 27.3347H238.777Z" fill="#B70FD1"/>
<path d="M35.4336 1.87646V8.52026H42.0774V12.9495H35.4336V19.5933H31.0044V12.9495H24.3606V8.52026H31.0044V1.87646H35.4336ZM17.7168 28.4517C15.2807 28.4517 13.2876 26.4585 13.2876 24.0225C13.2876 21.5864 15.2807 19.5933 17.7168 19.5933C20.1529 19.5933 22.146 21.5864 22.146 24.0225C22.146 26.4585 20.1529 28.4517 17.7168 28.4517ZM19.9314 6.43854V10.912C19.1988 10.7963 18.4584 10.737 17.7168 10.7349C10.2979 10.7349 4.4292 16.4264 4.4292 24.4654C4.4292 29.6475 8.74767 36.5128 17.7168 44.7068C26.6859 36.5128 31.0044 29.6697 31.0044 24.4654V24.0225H35.4336V24.4654C35.4336 31.8178 29.5206 40.5212 17.7168 50.5977C5.91298 40.5212 0 31.8178 0 24.4654C0 13.4367 8.41548 6.30566 17.7168 6.30566C18.4698 6.30566 19.2006 6.34996 19.9314 6.43854V6.43854Z" fill="black"/>
</svg>
